<svg width="134.000000" height="26.907398" viewBox="0 0 134 26.9074" fill="none" xmlns="http://www.w3.org/2000/svg" xmlns:xlink="http://www.w3.org/1999/xlink">
	<desc>
			Created with Pixso.
	</desc>
	<defs/>
	<path id="Union" d="M22.5466 10.9513L18.9294 12.1901L18.9294 6.73924L13.3794 11.5955L22.5466 16.1048L22.5466 21.5556L10.9016 26.9074L0 21.5556L0 0L5.59961 0L5.59961 6.73924L13.3794 0L18.9294 0L5.59961 11.5955L5.59961 18.5329L10.9016 21.1592L16.7986 18.5329L16.7986 17.4923L8.12671 12.8838L8.12671 10.9513L19.8708 1.04062L22.5466 2.67587L22.5466 10.9513ZM117.028 19.8817C116.167 20.6222 115.202 21.1905 114.135 21.5866C113.067 21.9827 111.96 22.1807 110.815 22.1807C109.937 22.1807 109.089 22.0645 108.271 21.832C107.461 21.6081 106.699 21.2895 105.984 20.8762Q105.572 20.6295 105.186 20.3456L105.186 20.3455L105.186 20.3454Q104.583 19.9009 104.047 19.365C103.461 18.7795 102.958 18.1337 102.536 17.4276C102.122 16.7129 101.8 15.9508 101.567 15.1414C101.343 14.3233 101.231 13.4752 101.231 12.5969C101.231 11.7186 101.343 10.8704 101.567 10.0524Q101.916 8.82533 102.536 7.76619C102.958 7.05149 103.461 6.40137 104.047 5.81583Q104.648 5.2149 105.333 4.7349L105.334 4.73465L105.334 4.7342Q105.65 4.51303 105.984 4.31755C106.699 3.89561 107.461 3.57271 108.271 3.34883Q108.364 3.32222 108.458 3.29765L108.473 3.29373Q109.606 3.00009 110.815 3.00009C111.96 3.00009 113.067 3.19814 114.135 3.59424Q114.878 3.864 115.554 4.25063L115.555 4.25086Q116.336 4.69717 117.028 5.29918L115.064 8.52825C114.522 7.94271 113.88 7.49495 113.14 7.18496C112.399 6.86636 111.625 6.70706 110.815 6.70706Q109.844 6.70706 108.969 6.99847Q108.739 7.07516 108.516 7.17204C107.801 7.48203 107.177 7.90396 106.643 8.43784C106.109 8.9631 105.687 9.58739 105.377 10.3107C105.067 11.0254 104.912 11.7875 104.912 12.5969C104.912 13.4063 105.067 14.1684 105.377 14.8831C105.687 15.5891 106.109 16.2091 106.643 16.743C107.177 17.2769 107.801 17.6988 108.516 18.0088C109.231 18.3188 109.997 18.4738 110.815 18.4738C111.625 18.4738 112.399 18.3188 113.14 18.0088C113.88 17.6902 114.522 17.2381 115.064 16.6526L117.028 19.8817ZM35.707 21.7813L32 21.7813L32 3.25936L35.707 3.25936L35.707 12.5203L42.6042 3.25936L46.8149 3.25936L40.9639 11.0737L46.8149 21.7813L42.6042 21.7813L38.5356 14.2899L35.707 18.0743L35.707 21.7813ZM47.4478 8.81336C47.4478 8.047 47.5942 7.32799 47.887 6.65634Q48.2217 5.88833 48.7366 5.27044Q48.8972 5.07779 49.0752 4.89973Q49.3489 4.62612 49.6541 4.39414Q50.199 3.98 50.8447 3.69852Q51.0796 3.59614 51.3223 3.51763L51.3228 3.51747Q52.1206 3.25936 53.0017 3.25936L61.5007 3.25936L61.5007 6.96634L53.0017 6.96634C52.7434 6.96634 52.5024 7.01369 52.2786 7.10841C52.0547 7.20313 51.8567 7.3366 51.6843 7.50882C51.5208 7.67242 51.3916 7.86617 51.2969 8.09005C51.2021 8.31393 51.1548 8.55503 51.1548 8.81336C51.1548 9.07169 51.2021 9.3171 51.2969 9.54959C51.3916 9.77347 51.5208 9.97152 51.6843 10.1437C51.8567 10.3073 52.0547 10.4365 52.2786 10.5312Q52.3186 10.5482 52.3596 10.5632L52.3628 10.5643Q52.6624 10.6733 53.0017 10.6733L56.7087 10.6733C57.4751 10.6733 58.1941 10.8197 58.8657 11.1125C59.5461 11.3966 60.136 11.7927 60.6353 12.3008C61.1433 12.8002 61.5396 13.39 61.8237 14.0703C62.1165 14.7419 62.2627 15.4609 62.2627 16.2273C62.2627 16.9937 62.1165 17.7127 61.8237 18.3843C61.5396 19.056 61.1433 19.6458 60.6353 20.1538C60.136 20.6533 59.5461 21.0494 58.8657 21.3421Q58.6309 21.4445 58.3882 21.5231L58.3879 21.5232Q57.5901 21.7813 56.7087 21.7813L48.4812 21.7813L48.4812 18.0743L56.7087 18.0743C56.967 18.0743 57.2083 18.027 57.4321 17.9322C57.656 17.8375 57.8496 17.7084 58.0134 17.5448C58.1855 17.3725 58.3191 17.1745 58.4138 16.9506C58.5085 16.7267 58.5559 16.4856 58.5559 16.2273C58.5559 15.969 58.5085 15.7279 58.4138 15.504C58.3191 15.2801 58.1855 15.0864 58.0134 14.9228C57.8496 14.7505 57.656 14.6171 57.4321 14.5224Q57.3906 14.5048 57.3484 14.4894L57.3479 14.4893Q57.0481 14.3803 56.7087 14.3803L53.0017 14.3803C52.2354 14.3803 51.5164 14.2339 50.8447 13.9411C50.1731 13.6484 49.5833 13.2523 49.0752 12.7528Q48.8586 12.5324 48.668 12.2915Q48.1992 11.6994 47.887 10.9833C47.5942 10.303 47.4478 9.57973 47.4478 8.81336ZM79.8938 21.7813L76.1997 21.7813L76.1997 6.96634L70.6328 6.96634L70.6328 3.25936L85.4478 3.25936L85.4478 6.96634L79.8938 6.96634L79.8938 21.7813ZM100.107 21.7813L87.4106 21.7813L87.4106 3.25936L100.107 3.25936L100.107 6.96634L91.1177 6.96634L91.1177 10.6733L97.2012 10.6733L97.2012 14.3803L91.1177 14.3803L91.1177 18.0743L100.107 18.0743L100.107 21.7813ZM122.892 21.7813L119.185 21.7813L119.185 3.25936L122.892 3.25936L122.892 10.6733L130.293 10.6733L130.293 3.25936L134 3.25936L134 21.7813L130.293 21.7813L130.293 14.3803L122.892 14.3803L122.892 21.7813Z" clip-rule="evenodd" fill="#FFFFFF" fill-opacity="1.000000" fill-rule="evenodd"/>
</svg>
